<?xml version="1.0" encoding="UTF-8" standalone="no"?>
<!DOCTYPE svg PUBLIC "-//W3C//DTD SVG 1.1//EN" "http://www.w3.org/Graphics/SVG/1.1/DTD/svg11.dtd">
<svg width="100%" height="100%" viewBox="0 0 2000 400" version="1.1" xmlns="http://www.w3.org/2000/svg" xmlns:xlink="http://www.w3.org/1999/xlink" xml:space="preserve" xmlns:serif="http://www.serif.com/" style="fill-rule:evenodd;clip-rule:evenodd;stroke-linecap:round;stroke-linejoin:round;stroke-miterlimit:1.5;">
    <g transform="matrix(1,0,0,1,0,-200.331519)">
        <g id="Full-Black" serif:id="Full Black" transform="matrix(1.165047,0,0,1.165047,-263.949799,-763.236866)">
            <g transform="matrix(1.062407,0,0,1.062407,-123.841395,-142.326196)">
                <g transform="matrix(235.314697,0,0,235.314697,788.838021,1133.767165)">
                    <path d="M0.284,0.01C0.236,0.01 0.193,-0.001 0.154,-0.022C0.116,-0.044 0.086,-0.074 0.064,-0.112C0.041,-0.15 0.03,-0.193 0.03,-0.24C0.03,-0.287 0.041,-0.33 0.063,-0.367C0.085,-0.405 0.115,-0.435 0.152,-0.457C0.19,-0.479 0.232,-0.49 0.278,-0.49C0.323,-0.49 0.362,-0.48 0.397,-0.459C0.431,-0.438 0.458,-0.41 0.478,-0.374C0.497,-0.338 0.507,-0.297 0.507,-0.251C0.507,-0.243 0.507,-0.235 0.506,-0.227C0.505,-0.218 0.503,-0.209 0.501,-0.199L0.107,-0.199L0.107,-0.289L0.444,-0.289L0.403,-0.253C0.402,-0.282 0.396,-0.307 0.386,-0.327C0.376,-0.347 0.362,-0.362 0.344,-0.373C0.325,-0.384 0.303,-0.389 0.276,-0.389C0.248,-0.389 0.224,-0.383 0.203,-0.371C0.182,-0.359 0.166,-0.342 0.155,-0.321C0.144,-0.299 0.138,-0.273 0.138,-0.243C0.138,-0.213 0.144,-0.187 0.156,-0.164C0.168,-0.141 0.185,-0.124 0.207,-0.112C0.229,-0.099 0.254,-0.093 0.283,-0.093C0.308,-0.093 0.331,-0.097 0.352,-0.106C0.373,-0.115 0.39,-0.127 0.405,-0.144L0.475,-0.073C0.452,-0.046 0.423,-0.025 0.39,-0.011C0.357,0.003 0.321,0.01 0.284,0.01Z" style="fill:rgb(42,42,44);fill-rule:nonzero;"/>
                </g>
                <g transform="matrix(235.314697,0,0,235.314697,918.731733,1133.767165)">
                    <rect x="0.061" y="-0.307" width="0.339" height="0.104" style="fill:rgb(42,42,44);fill-rule:nonzero;"/>
                </g>
                <g transform="matrix(235.314697,0,0,235.314697,1031.447473,1133.767165)">
                    <path d="M0.282,0.01C0.235,0.01 0.192,-0.001 0.153,-0.023C0.115,-0.045 0.085,-0.075 0.063,-0.113C0.041,-0.151 0.03,-0.193 0.03,-0.24C0.03,-0.287 0.041,-0.33 0.063,-0.367C0.085,-0.405 0.115,-0.435 0.153,-0.457C0.192,-0.479 0.235,-0.49 0.282,-0.49C0.319,-0.49 0.354,-0.483 0.387,-0.469C0.419,-0.454 0.446,-0.434 0.469,-0.407L0.397,-0.334C0.383,-0.351 0.366,-0.363 0.347,-0.371C0.327,-0.38 0.305,-0.384 0.282,-0.384C0.255,-0.384 0.231,-0.378 0.209,-0.365C0.189,-0.353 0.172,-0.336 0.161,-0.315C0.149,-0.294 0.143,-0.269 0.143,-0.24C0.143,-0.212 0.149,-0.187 0.161,-0.166C0.172,-0.144 0.189,-0.127 0.209,-0.115C0.231,-0.102 0.255,-0.096 0.282,-0.096C0.305,-0.096 0.327,-0.1 0.347,-0.108C0.366,-0.117 0.383,-0.129 0.397,-0.146L0.469,-0.073C0.446,-0.046 0.419,-0.026 0.387,-0.011C0.354,0.003 0.319,0.01 0.282,0.01Z" style="fill:rgb(42,42,44);fill-rule:nonzero;"/>
                </g>
                <g transform="matrix(235.314697,0,0,235.314697,1146.04573,1133.767165)">
                    <path d="M0.39,-0L0.39,-0.277C0.39,-0.309 0.38,-0.335 0.359,-0.356C0.339,-0.377 0.313,-0.387 0.281,-0.387C0.26,-0.387 0.24,-0.382 0.224,-0.373C0.207,-0.364 0.194,-0.351 0.185,-0.334C0.176,-0.317 0.171,-0.298 0.171,-0.277L0.128,-0.301C0.128,-0.338 0.136,-0.37 0.152,-0.399C0.168,-0.427 0.19,-0.449 0.218,-0.466C0.247,-0.482 0.279,-0.49 0.314,-0.49C0.35,-0.49 0.382,-0.482 0.41,-0.466C0.438,-0.45 0.46,-0.428 0.476,-0.4C0.492,-0.371 0.5,-0.338 0.5,-0.301L0.5,-0L0.39,-0ZM0.061,-0L0.061,-0.72L0.171,-0.72L0.171,-0L0.061,-0Z" style="fill:rgb(42,42,44);fill-rule:nonzero;"/>
                </g>
                <g transform="matrix(235.314697,0,0,235.314697,1275.704128,1133.767165)">
                    <path d="M0.262,0.01C0.219,0.01 0.179,-0.001 0.144,-0.023C0.11,-0.045 0.082,-0.075 0.061,-0.113C0.041,-0.15 0.031,-0.192 0.031,-0.239C0.031,-0.286 0.041,-0.329 0.061,-0.366C0.082,-0.404 0.11,-0.434 0.144,-0.457C0.179,-0.479 0.219,-0.49 0.262,-0.49C0.299,-0.49 0.331,-0.482 0.359,-0.467C0.388,-0.451 0.41,-0.429 0.427,-0.402C0.444,-0.375 0.452,-0.344 0.452,-0.309L0.452,-0.171C0.452,-0.136 0.444,-0.105 0.427,-0.078C0.411,-0.051 0.389,-0.029 0.36,-0.013C0.331,0.002 0.299,0.01 0.262,0.01ZM0.28,-0.094C0.321,-0.094 0.353,-0.108 0.379,-0.135C0.404,-0.162 0.416,-0.197 0.416,-0.24C0.416,-0.269 0.41,-0.294 0.399,-0.316C0.388,-0.338 0.372,-0.355 0.352,-0.367C0.331,-0.38 0.307,-0.386 0.28,-0.386C0.253,-0.386 0.23,-0.38 0.209,-0.367C0.189,-0.355 0.173,-0.338 0.162,-0.316C0.15,-0.294 0.144,-0.269 0.144,-0.24C0.144,-0.211 0.15,-0.186 0.162,-0.164C0.173,-0.142 0.189,-0.125 0.209,-0.113C0.23,-0.1 0.253,-0.094 0.28,-0.094ZM0.409,-0L0.409,-0.129L0.428,-0.246L0.409,-0.362L0.409,-0.48L0.519,-0.48L0.519,-0L0.409,-0Z" style="fill:rgb(42,42,44);fill-rule:nonzero;"/>
                </g>
                <g transform="matrix(235.314697,0,0,235.314697,1412.186652,1133.767165)">
                    <path d="M0.061,-0L0.061,-0.48L0.171,-0.48L0.171,-0L0.061,-0ZM0.171,-0.267L0.133,-0.286C0.133,-0.347 0.146,-0.396 0.174,-0.433C0.201,-0.471 0.241,-0.49 0.296,-0.49C0.32,-0.49 0.342,-0.486 0.361,-0.477C0.38,-0.468 0.398,-0.454 0.415,-0.435L0.343,-0.361C0.334,-0.37 0.325,-0.377 0.314,-0.381C0.303,-0.385 0.291,-0.387 0.277,-0.387C0.246,-0.387 0.221,-0.377 0.201,-0.358C0.181,-0.339 0.171,-0.308 0.171,-0.267Z" style="fill:rgb(42,42,44);fill-rule:nonzero;"/>
                </g>
                <g transform="matrix(235.314697,0,0,235.314697,1504.665328,1133.767165)">
                    <path d="M0.261,0.21C0.21,0.21 0.166,0.201 0.128,0.182C0.09,0.164 0.059,0.138 0.036,0.105L0.108,0.033C0.127,0.057 0.149,0.075 0.174,0.087C0.199,0.099 0.228,0.105 0.263,0.105C0.306,0.105 0.341,0.094 0.366,0.072C0.391,0.049 0.404,0.019 0.404,-0.02L0.404,-0.138L0.423,-0.244L0.404,-0.351L0.404,-0.48L0.514,-0.48L0.514,-0.02C0.514,0.026 0.503,0.066 0.482,0.101C0.461,0.135 0.431,0.162 0.393,0.181C0.355,0.2 0.311,0.21 0.261,0.21ZM0.256,-0.01C0.213,-0.01 0.175,-0.021 0.141,-0.042C0.106,-0.062 0.079,-0.091 0.06,-0.128C0.04,-0.165 0.03,-0.206 0.03,-0.251C0.03,-0.296 0.04,-0.337 0.06,-0.373C0.079,-0.409 0.106,-0.438 0.141,-0.459C0.175,-0.479 0.213,-0.49 0.256,-0.49C0.294,-0.49 0.327,-0.482 0.356,-0.467C0.385,-0.452 0.407,-0.431 0.423,-0.404C0.439,-0.377 0.447,-0.345 0.447,-0.309L0.447,-0.191C0.447,-0.156 0.439,-0.124 0.422,-0.097C0.406,-0.07 0.384,-0.048 0.355,-0.033C0.326,-0.018 0.293,-0.01 0.256,-0.01ZM0.278,-0.114C0.305,-0.114 0.328,-0.12 0.348,-0.131C0.368,-0.142 0.384,-0.158 0.395,-0.178C0.406,-0.199 0.411,-0.223 0.411,-0.25C0.411,-0.277 0.406,-0.301 0.395,-0.322C0.384,-0.342 0.368,-0.358 0.348,-0.369C0.328,-0.38 0.305,-0.386 0.278,-0.386C0.251,-0.386 0.228,-0.38 0.208,-0.369C0.187,-0.358 0.171,-0.342 0.16,-0.322C0.149,-0.301 0.143,-0.277 0.143,-0.25C0.143,-0.223 0.149,-0.2 0.16,-0.179C0.171,-0.158 0.187,-0.142 0.208,-0.131C0.228,-0.12 0.251,-0.114 0.278,-0.114Z" style="fill:rgb(42,42,44);fill-rule:nonzero;"/>
                </g>
                <g transform="matrix(235.314697,0,0,235.314697,1639.971278,1133.767165)">
                    <path d="M0.062,-0L0.062,-0.48L0.172,-0.48L0.172,-0L0.062,-0ZM0.117,-0.568C0.098,-0.568 0.083,-0.574 0.071,-0.587C0.058,-0.6 0.052,-0.615 0.052,-0.634C0.052,-0.653 0.058,-0.668 0.071,-0.681C0.083,-0.694 0.098,-0.7 0.117,-0.7C0.136,-0.7 0.152,-0.694 0.164,-0.681C0.176,-0.668 0.182,-0.653 0.182,-0.634C0.182,-0.615 0.176,-0.6 0.164,-0.587C0.152,-0.574 0.136,-0.568 0.117,-0.568Z" style="fill:rgb(42,42,44);fill-rule:nonzero;"/>
                </g>
                <g transform="matrix(235.314697,0,0,235.314697,1695.034917,1133.767165)">
                    <path d="M0.39,-0L0.39,-0.277C0.39,-0.309 0.38,-0.335 0.359,-0.356C0.339,-0.377 0.313,-0.387 0.281,-0.387C0.26,-0.387 0.24,-0.382 0.224,-0.373C0.207,-0.364 0.194,-0.351 0.185,-0.334C0.176,-0.317 0.171,-0.298 0.171,-0.277L0.128,-0.301C0.128,-0.338 0.136,-0.37 0.152,-0.399C0.168,-0.427 0.19,-0.449 0.218,-0.466C0.247,-0.482 0.279,-0.49 0.314,-0.49C0.35,-0.49 0.382,-0.481 0.41,-0.463C0.438,-0.444 0.46,-0.421 0.476,-0.392C0.492,-0.363 0.5,-0.332 0.5,-0.301L0.5,-0L0.39,-0ZM0.061,-0L0.061,-0.48L0.171,-0.48L0.171,-0L0.061,-0Z" style="fill:rgb(42,42,44);fill-rule:nonzero;"/>
                </g>
                <g transform="matrix(235.314697,0,0,235.314697,1824.693315,1133.767165)">
                    <path d="M0.261,0.21C0.21,0.21 0.166,0.201 0.128,0.182C0.09,0.164 0.059,0.138 0.036,0.105L0.108,0.033C0.127,0.057 0.149,0.075 0.174,0.087C0.199,0.099 0.228,0.105 0.263,0.105C0.306,0.105 0.341,0.094 0.366,0.072C0.391,0.049 0.404,0.019 0.404,-0.02L0.404,-0.138L0.423,-0.244L0.404,-0.351L0.404,-0.48L0.514,-0.48L0.514,-0.02C0.514,0.026 0.503,0.066 0.482,0.101C0.461,0.135 0.431,0.162 0.393,0.181C0.355,0.2 0.311,0.21 0.261,0.21ZM0.256,-0.01C0.213,-0.01 0.175,-0.021 0.141,-0.042C0.106,-0.062 0.079,-0.091 0.06,-0.128C0.04,-0.165 0.03,-0.206 0.03,-0.251C0.03,-0.296 0.04,-0.337 0.06,-0.373C0.079,-0.409 0.106,-0.438 0.141,-0.459C0.175,-0.479 0.213,-0.49 0.256,-0.49C0.294,-0.49 0.327,-0.482 0.356,-0.467C0.385,-0.452 0.407,-0.431 0.423,-0.404C0.439,-0.377 0.447,-0.345 0.447,-0.309L0.447,-0.191C0.447,-0.156 0.439,-0.124 0.422,-0.097C0.406,-0.07 0.384,-0.048 0.355,-0.033C0.326,-0.018 0.293,-0.01 0.256,-0.01ZM0.278,-0.114C0.305,-0.114 0.328,-0.12 0.348,-0.131C0.368,-0.142 0.384,-0.158 0.395,-0.178C0.406,-0.199 0.411,-0.223 0.411,-0.25C0.411,-0.277 0.406,-0.301 0.395,-0.322C0.384,-0.342 0.368,-0.358 0.348,-0.369C0.328,-0.38 0.305,-0.386 0.278,-0.386C0.251,-0.386 0.228,-0.38 0.208,-0.369C0.187,-0.358 0.171,-0.342 0.16,-0.322C0.149,-0.301 0.143,-0.277 0.143,-0.25C0.143,-0.223 0.149,-0.2 0.16,-0.179C0.171,-0.158 0.187,-0.142 0.208,-0.131C0.228,-0.12 0.251,-0.114 0.278,-0.114Z" style="fill:rgb(42,42,44);fill-rule:nonzero;"/>
                </g>
                <g transform="matrix(235.314697,0,0,235.314697,1959.999265,1133.767165)">
                </g>
            </g>
            <g transform="matrix(1,0,0,1,0,518.483593)">
                <path d="M580,427L502,599C502,599 496.946,620.854 472,608C447.054,595.146 266,509 266,509C266,509 255.511,503.822 266,489C276.489,474.178 379,334 379,334C379,334 383.157,323.677 403,330C422.843,336.323 476,353 476,353C476,353 487.679,352.101 489,348C490.321,343.899 490.53,341.313 480,338C469.47,334.687 392,310 392,310C392,310 381.688,305.73 376,312C370.312,318.27 230,505 230,505C230,505 222.254,514.134 230,518C237.746,521.866 491,649 491,649C491,649 507.006,657.907 514,641C520.994,624.093 601,436 601,436C601,436 604.369,428.726 594,425C583.631,421.274 580.182,426.6 580,427Z" style="fill:rgb(42,42,44);"/>
            </g>
            <g>
                <g transform="matrix(0.786923,0.584057,-1.143391,1.529273,1243.506567,-516.209197)">
                    <path d="M236.529,919.493L236.529,923.143C236.529,925.824 232.497,928 227.529,928C222.562,928 218.529,925.824 218.529,923.143L218.529,905.717L205.559,905.718L205.445,905.717L199.206,905.717C196.722,905.717 194.706,904.629 194.706,903.289L194.706,876.146C194.706,876.098 194.708,876.05 194.714,876.003L194.706,876.003C194.706,859.603 219.377,846.289 249.765,846.289C280.152,846.289 304.824,859.603 304.824,876.003L304.816,876.003C304.821,876.05 304.824,876.098 304.824,876.146L304.824,903.289C304.824,904.629 302.807,905.717 300.324,905.717L291.324,905.717C291.252,905.717 291.181,905.716 291.11,905.714L281,905.715L281,923.143C281,925.824 276.967,928 272,928C267.033,928 263,925.824 263,923.143L263,919.944C262.072,919.229 261.527,918.358 261.527,917.419L261.527,905.716L237.488,905.717L237.488,917.419C237.488,918.169 237.141,918.874 236.529,919.493ZM215.846,874.609C215.85,874.652 215.853,874.695 215.853,874.739L215.853,892.772L229.04,892.772C229.131,892.77 229.223,892.77 229.315,892.77C229.406,892.77 229.497,892.77 229.588,892.772L269.543,892.77L269.701,892.77L269.858,892.77L283.163,892.77L283.163,874.739C283.163,874.695 283.165,874.652 283.17,874.609L283.163,874.609C283.163,864.801 267.682,856.319 249.508,856.319C231.334,856.319 215.853,864.801 215.853,874.609L215.846,874.609Z" style="fill:rgb(42,42,44);stroke:rgb(42,42,44);stroke-width:1.18px;"/>
                </g>
                <g transform="matrix(1.008065,0,0,0.871796,9.306452,139.872204)">
                    <path d="M460.997,900.294C460.997,900.294 478.001,875.42 510.96,878.108C543.919,880.795 547.884,895.339 582,859" style="fill:rgb(42,42,44);fill-opacity:0;stroke:rgb(42,42,44);stroke-width:15.18px;"/>
                </g>
            </g>
        </g>
    </g>
</svg>
