<?xml version="1.0" encoding="UTF-8" standalone="no"?>
<!DOCTYPE svg PUBLIC "-//W3C//DTD SVG 1.1//EN" "http://www.w3.org/Graphics/SVG/1.1/DTD/svg11.dtd">
<svg width="100%" height="100%" viewBox="0 0 1000 909" version="1.1" xmlns="http://www.w3.org/2000/svg" xmlns:xlink="http://www.w3.org/1999/xlink" xml:space="preserve" xmlns:serif="http://www.serif.com/" style="fill-rule:evenodd;clip-rule:evenodd;stroke-linecap:round;stroke-linejoin:round;stroke-miterlimit:1.5;">
    <g transform="matrix(1,0,0,1,0,-48.423238)">
        <g transform="matrix(0.994,0,0,0.994,0,-36.9385)">
            <g id="Full-White" serif:id="Full White">
                <g transform="matrix(2.666912,0,0,2.666912,-604.207988,-737.079152)">
                    <path d="M580,427L502,599C502,599 496.946,620.854 472,608C447.054,595.146 266,509 266,509C266,509 255.511,503.822 266,489C276.489,474.178 379,334 379,334C379,334 383.157,323.677 403,330C422.843,336.323 476,353 476,353C476,353 487.679,352.101 489,348C490.321,343.899 490.53,341.313 480,338C469.47,334.687 392,310 392,310C392,310 381.688,305.73 376,312C370.312,318.27 230,505 230,505C230,505 222.254,514.134 230,518C237.746,521.866 491,649 491,649C491,649 507.006,657.907 514,641C520.994,624.093 601,436 601,436C601,436 604.369,428.726 594,425C583.631,421.274 580.182,426.6 580,427Z" style="fill:white;"/>
                </g>
                <g transform="matrix(2.688419,0,0,2.325003,-579.388501,-1746.802379)">
                    <path d="M460.997,900.294C460.997,900.294 478.001,875.42 510.96,878.108C543.919,880.795 547.884,895.339 582,859" style="fill:white;fill-opacity:0;stroke:white;stroke-width:15.84px;"/>
                </g>
                <g transform="matrix(2.027423,1.558226,-1.752467,2.280152,1454.367281,-2031.273888)">
                    <path d="M274.703,930.037L268.327,930.133C265.789,930.17 263.7,928.274 263.664,925.901L262.947,877.842C262.946,877.757 262.947,877.673 262.951,877.589L262.943,877.589C262.51,848.552 287.37,824.6 318.425,824.137C349.479,823.673 375.044,846.871 375.477,875.909L375.469,875.909C375.476,875.993 375.48,876.077 375.481,876.162L376.199,924.221C376.234,926.594 374.202,928.552 371.664,928.59L362.467,928.727C362.394,928.728 362.321,928.728 362.249,928.726L351.916,928.881L352.377,959.739C352.448,964.485 348.384,968.4 343.308,968.476C338.232,968.552 334.053,964.76 333.982,960.013L333.521,929.156L306.47,929.562L306.931,960.417C307.002,965.164 302.938,969.079 297.862,969.155C292.785,969.23 288.607,965.438 288.536,960.692L288.075,929.838L274.82,930.037L274.703,930.037ZM284.51,874.799C284.516,874.875 284.519,874.951 284.521,875.028L284.997,906.959L298.474,906.757C298.567,906.752 298.661,906.75 298.755,906.748C298.848,906.747 298.941,906.747 299.034,906.748L339.865,906.136L340.027,906.132L340.187,906.131L353.784,905.927L353.308,874.001C353.307,873.924 353.308,873.847 353.311,873.771L353.304,873.772C353.045,856.405 337,841.623 318.427,841.9C299.854,842.178 284.258,857.432 284.517,874.799L284.51,874.799Z" style="fill:white;stroke:white;stroke-width:0.77px;"/>
                </g>
            </g>
        </g>
    </g>
</svg>
